<svg width="70" height="70" viewBox="0 0 70 70" fill="none" xmlns="http://www.w3.org/2000/svg">
<circle cx="35" cy="35" r="35" fill="#EFECFB"/>
<g clip-path="url(#clip0_1_75)">
<path d="M35 53C44.9411 53 53 44.9411 53 35C53 25.0589 44.9411 17 35 17C25.0589 17 17 25.0589 17 35C17 44.9411 25.0589 53 35 53Z" fill="#F0F0F0"/>
<path d="M20.7209 24.0412C19.307 25.8808 18.2408 28.0011 17.6201 30.3045H26.9841L20.7209 24.0412Z" fill="#0052B4"/>
<path d="M52.3799 30.3045C51.7591 28.0012 50.6929 25.8809 49.279 24.0413L43.0159 30.3045H52.3799Z" fill="#0052B4"/>
<path d="M17.6201 39.6957C18.2409 41.999 19.3071 44.1193 20.7209 45.9588L26.9839 39.6957H17.6201Z" fill="#0052B4"/>
<path d="M45.9587 20.721C44.1191 19.3071 41.9989 18.2409 39.6956 17.6201V26.9841L45.9587 20.721Z" fill="#0052B4"/>
<path d="M24.0412 49.279C25.8808 50.6929 28.0011 51.7591 30.3044 52.3799V43.016L24.0412 49.279Z" fill="#0052B4"/>
<path d="M30.3043 17.6201C28.001 18.2409 25.8807 19.3071 24.0412 20.7209L30.3043 26.984V17.6201Z" fill="#0052B4"/>
<path d="M39.6956 52.3799C41.9989 51.7591 44.1192 50.6929 45.9587 49.2791L39.6956 43.016V52.3799Z" fill="#0052B4"/>
<path d="M43.0159 39.6957L49.279 45.9589C50.6929 44.1194 51.7591 41.999 52.3799 39.6957H43.0159Z" fill="#0052B4"/>
<path d="M52.8476 32.6522H37.3479H37.3479V17.1524C36.5793 17.0523 35.7957 17 35 17C34.2041 17 33.4207 17.0523 32.6522 17.1524V32.6521V32.6521H17.1524C17.0523 33.4207 17 34.2043 17 35C17 35.7959 17.0523 36.5793 17.1524 37.3478H32.6521H32.6521V52.8476C33.4207 52.9477 34.2041 53 35 53C35.7957 53 36.5793 52.9478 37.3478 52.8476V37.3479V37.3479H52.8476C52.9477 36.5793 53 35.7959 53 35C53 34.2043 52.9477 33.4207 52.8476 32.6522Z" fill="#D80027"/>
<path d="M39.6957 39.6958L47.7279 47.728C48.0973 47.3587 48.4497 46.9726 48.786 46.5724L41.9093 39.6957H39.6957V39.6958Z" fill="#D80027"/>
<path d="M30.3043 39.6957H30.3042L22.272 47.7279C22.6413 48.0973 23.0274 48.4497 23.4276 48.786L30.3043 41.9091V39.6957Z" fill="#D80027"/>
<path d="M30.3043 30.3045V30.3043L22.2721 22.272C21.9027 22.6413 21.5503 23.0274 21.2141 23.4276L28.0908 30.3044H30.3043V30.3045Z" fill="#D80027"/>
<path d="M39.6957 30.3045L47.728 22.2721C47.3587 21.9027 46.9726 21.5503 46.5724 21.2141L39.6957 28.0909V30.3045Z" fill="#D80027"/>
</g>
<defs>
<clipPath id="clip0_1_75">
<rect width="36" height="36" fill="white" transform="translate(17 17)"/>
</clipPath>
</defs>
</svg>
