<svg width="70" height="70" viewBox="0 0 70 70" fill="none" xmlns="http://www.w3.org/2000/svg">
<circle cx="35" cy="35" r="35" fill="#FFF0EB"/>
<g clip-path="url(#clip0_1_74)">
<path d="M17 35C17 37.2018 17.3961 39.3109 18.1196 41.2609L35 42.8261L51.8804 41.2609C52.6039 39.3109 53 37.2018 53 35C53 32.7983 52.6039 30.6892 51.8804 28.7392L35 27.174L18.1196 28.7392C17.3961 30.6892 17 32.7983 17 35Z" fill="#FFDA44"/>
<path d="M51.8804 28.7392C49.3371 21.8848 42.7394 17 35 17C27.2606 17 20.6629 21.8848 18.1196 28.7392H51.8804Z" fill="#D80027"/>
<path d="M18.1196 41.2609C20.6629 48.1152 27.2606 53 35 53C42.7394 53 49.3371 48.1152 51.8804 41.2609H18.1196Z" fill="#D80027"/>
</g>
<defs>
<clipPath id="clip0_1_74">
<rect width="36" height="36" fill="white" transform="translate(17 17)"/>
</clipPath>
</defs>
</svg>
