<svg width="21" height="21" viewBox="0 0 21 21" fill="none" xmlns="http://www.w3.org/2000/svg">
<g clip-path="url(#clip0_1_128)">
<path d="M10.432 18.197C11.7719 18.197 12.858 17.1108 12.858 15.771C12.858 14.4312 11.7719 13.345 10.432 13.345C9.09217 13.345 8.00601 14.4312 8.00601 15.771C8.00601 17.1108 9.09217 18.197 10.432 18.197Z" fill="#3ABAD6"/>
<path d="M16.23 9.92599C16.194 9.88899 16.156 9.85599 16.119 9.82199L16.01 9.71899C15.992 9.69999 15.972 9.68599 15.949 9.66799C12.812 6.81799 8.01102 6.93099 5.01702 9.92499L4.66602 10.277L4.18002 10.763C3.58802 11.355 3.59102 12.32 4.18402 12.913C4.77802 13.508 5.74302 13.509 6.33402 12.917L7.17202 12.079C9.07602 10.176 12.173 10.176 14.076 12.078L14.681 12.664C15.267 13.25 16.223 13.249 16.812 12.659C17.097 12.375 17.254 11.996 17.255 11.593C17.256 11.192 17.101 10.813 16.816 10.53L16.23 9.92599Z" fill="#3ABAD6"/>
<path d="M20.363 6.927L19.859 6.423C19.857 6.421 19.856 6.418 19.852 6.417L19.454 6.017C19.384 5.948 19.308 5.888 19.228 5.836C14.115 1.347 6.33801 1.485 1.38801 6.247C1.36401 6.269 1.33701 6.284 1.31301 6.308L0.40301 7.219C-0.13699 7.758 -0.13399 8.635 0.40901 9.178C0.95101 9.72 1.82801 9.724 2.36801 9.183L3.27801 8.274C3.28401 8.266 3.28901 8.259 3.29501 8.254C7.29801 4.387 13.648 4.363 17.683 8.175L18.399 8.892C18.938 9.431 19.817 9.429 20.359 8.887C20.9 8.344 20.902 7.466 20.363 6.927Z" fill="#3ABAD6"/>
</g>
<defs>
<clipPath id="clip0_1_128">
<rect width="20.766" height="20.766" fill="white"/>
</clipPath>
</defs>
</svg>
